<?xml version="1.0" encoding="UTF-8" standalone="no"?>
<!DOCTYPE svg PUBLIC "-//W3C//DTD SVG 1.1//EN" "http://www.w3.org/Graphics/SVG/1.1/DTD/svg11.dtd">
<svg width="100%" height="100%" viewBox="0 0 50 50" version="1.1" xmlns="http://www.w3.org/2000/svg" xmlns:xlink="http://www.w3.org/1999/xlink" xml:space="preserve" xmlns:serif="http://www.serif.com/" style="fill-rule:evenodd;clip-rule:evenodd;stroke-linejoin:round;stroke-miterlimit:2;">
    <g id="Artboard1" transform="matrix(1.00036,0,0,0.953216,-5.56387,-3.39971)">
        <rect x="5.562" y="3.567" width="49.982" height="52.454" style="fill:none;"/>
        <g transform="matrix(1,0,0,1,0.0765286,-2.09352)">
            <g transform="matrix(0.965575,0.271522,-0.258725,1.01333,2.45156,-3.69429)">
                <rect x="15.858" y="5.505" width="40" height="40" style="fill:rgb(51,95,255);"/>
            </g>
            <g transform="matrix(0.965575,0.271522,-0.258725,1.01333,6.35335,-10.0018)">
                <rect x="40.644" y="17.323" width="8" height="8" style="fill:white;"/>
            </g>
            <g transform="matrix(0.999637,0,0,1.04908,0.487103,0.414689)">
                <path d="M18.173,41.17L17.876,42.281L12.725,40.9L13.023,39.79L18.173,41.17ZM15.754,30.672L12.994,40.972L11.629,40.607L14.389,30.306L15.754,30.672ZM24.087,42.049L25.664,36.163L26.98,36.516L24.929,44.17L23.677,43.835L24.087,42.049ZM24.767,40.503L25.316,40.634C25.179,41.144 24.999,41.601 24.774,42.006C24.555,42.407 24.285,42.734 23.965,42.987C23.644,43.24 23.269,43.405 22.839,43.481C22.41,43.554 21.922,43.516 21.375,43.37C21.003,43.27 20.675,43.124 20.393,42.932C20.115,42.742 19.896,42.503 19.735,42.218C19.574,41.932 19.481,41.591 19.456,41.195C19.435,40.8 19.493,40.348 19.63,39.839L20.953,34.901L22.262,35.251L20.935,40.204C20.842,40.548 20.804,40.843 20.818,41.09C20.839,41.333 20.898,41.538 20.994,41.706C21.097,41.87 21.224,42 21.375,42.096C21.531,42.193 21.699,42.266 21.878,42.314C22.435,42.463 22.904,42.475 23.286,42.35C23.67,42.22 23.981,41.993 24.22,41.668C24.465,41.339 24.647,40.951 24.767,40.503ZM31.789,44.606L32.844,40.665C32.925,40.363 32.934,40.085 32.871,39.83C32.814,39.573 32.681,39.35 32.474,39.163C32.266,38.976 31.985,38.835 31.631,38.74C31.301,38.652 30.996,38.631 30.716,38.677C30.44,38.724 30.207,38.821 30.016,38.967C29.83,39.114 29.709,39.294 29.652,39.506L28.343,39.156C28.416,38.882 28.56,38.63 28.773,38.399C28.987,38.168 29.255,37.979 29.577,37.833C29.905,37.684 30.273,37.595 30.679,37.568C31.092,37.536 31.529,37.583 31.992,37.707C32.548,37.856 33.013,38.082 33.387,38.384C33.766,38.688 34.024,39.063 34.163,39.509C34.307,39.952 34.302,40.459 34.149,41.03L33.194,44.596C33.126,44.85 33.074,45.127 33.04,45.426C33.01,45.727 33.012,45.992 33.046,46.224L33.016,46.337L31.65,45.971C31.625,45.803 31.626,45.588 31.656,45.328C31.686,45.063 31.73,44.823 31.789,44.606ZM32.908,41.334L32.676,42.258L31.353,41.903C30.98,41.803 30.639,41.745 30.33,41.728C30.023,41.706 29.754,41.728 29.525,41.792C29.295,41.857 29.104,41.965 28.952,42.117C28.802,42.264 28.695,42.455 28.632,42.691C28.567,42.931 28.563,43.165 28.618,43.392C28.674,43.619 28.794,43.821 28.979,43.997C29.171,44.17 29.427,44.299 29.747,44.385C30.148,44.492 30.525,44.502 30.877,44.414C31.229,44.327 31.527,44.184 31.772,43.987C32.022,43.791 32.185,43.58 32.261,43.352L32.651,44.132C32.565,44.321 32.417,44.516 32.206,44.717C31.995,44.919 31.738,45.097 31.433,45.253C31.134,45.406 30.798,45.51 30.424,45.567C30.056,45.62 29.664,45.591 29.249,45.48C28.73,45.341 28.302,45.117 27.965,44.81C27.633,44.503 27.404,44.151 27.278,43.753C27.158,43.352 27.155,42.939 27.268,42.515C27.378,42.105 27.555,41.765 27.799,41.497C28.044,41.224 28.345,41.024 28.703,40.897C29.061,40.766 29.468,40.703 29.921,40.708C30.375,40.714 30.863,40.786 31.387,40.927L32.908,41.334ZM39.963,46.303L41.54,40.417L42.856,40.77L40.805,48.424L39.553,48.089L39.963,46.303ZM40.643,44.756L41.191,44.888C41.055,45.398 40.874,45.855 40.649,46.26C40.431,46.661 40.161,46.988 39.84,47.241C39.52,47.494 39.145,47.658 38.715,47.735C38.286,47.807 37.798,47.77 37.251,47.624C36.878,47.524 36.551,47.378 36.269,47.186C35.991,46.995 35.772,46.757 35.611,46.471C35.45,46.186 35.356,45.845 35.331,45.449C35.311,45.054 35.369,44.602 35.505,44.093L36.828,39.154L38.137,39.505L36.81,44.457C36.718,44.802 36.679,45.097 36.694,45.344C36.715,45.587 36.773,45.792 36.87,45.96C36.973,46.124 37.1,46.254 37.251,46.35C37.407,46.447 37.574,46.52 37.754,46.568C38.31,46.717 38.779,46.729 39.162,46.604C39.545,46.474 39.856,46.247 40.095,45.922C40.34,45.593 40.523,45.204 40.643,44.756Z" style="fill:white;fill-rule:nonzero;"/>
            </g>
        </g>
    </g>
</svg>
