<svg width="52" height="52" viewBox="0 0 52 52" fill="none" xmlns="http://www.w3.org/2000/svg">
<rect x="11.8579" y="1.5051" width="40" height="40" rx="2" transform="rotate(15 11.8579 1.5051)" fill="url(#paint0_radial_5005_25)"/>
<rect x="36.6438" y="13.3228" width="8" height="8" rx="0.5" transform="rotate(15 36.6438 13.3228)" fill="white"/>
<path d="M14.7466 36.0199L14.3819 37.3808L9.38276 36.0413L9.74742 34.6804L14.7466 36.0199ZM12.5295 26.2122L9.86147 36.1696L8.14493 35.7096L10.813 25.7523L12.5295 26.2122ZM20.2451 37.0827L21.7605 31.427L23.4155 31.8705L21.4328 39.2701L19.8735 38.8523L20.2451 37.0827ZM20.8899 35.6063L21.4475 35.741C21.3143 36.238 21.1368 36.6815 20.915 37.0717C20.6944 37.4572 20.4286 37.7745 20.1176 38.0234C19.8078 38.2678 19.4519 38.429 19.0498 38.507C18.649 38.5804 18.2001 38.5505 17.7032 38.4173C17.343 38.3208 17.0265 38.1798 16.7537 37.9943C16.4809 37.8088 16.2644 37.5774 16.1042 37.2999C15.9485 37.0236 15.8584 36.6941 15.834 36.3112C15.8095 35.9284 15.8626 35.4931 15.9933 35.0053L17.2742 30.2249L18.9224 30.6665L17.6378 35.4606C17.5658 35.7296 17.5372 35.9638 17.5522 36.1633C17.5683 36.3582 17.6165 36.525 17.6966 36.6637C17.7767 36.8025 17.8836 36.9142 18.0173 36.9989C18.1509 37.0836 18.2998 37.1479 18.464 37.1919C18.9336 37.3177 19.3273 37.3255 19.6452 37.2152C19.9688 37.1015 20.2298 36.9027 20.428 36.6187C20.6309 36.3358 20.7848 35.9984 20.8899 35.6063ZM27.6913 39.3565L28.6368 35.8276C28.7077 35.5632 28.7209 35.3224 28.6765 35.1053C28.632 34.8881 28.5258 34.7009 28.3579 34.5435C28.1945 34.3873 27.9669 34.2701 27.6751 34.1919C27.4061 34.1199 27.1614 34.1031 26.9409 34.1418C26.7204 34.1805 26.5347 34.2626 26.3838 34.3883C26.2328 34.514 26.1311 34.6749 26.0785 34.8709L24.4372 34.4311C24.5154 34.1394 24.6618 33.8756 24.8764 33.6399C25.0911 33.4043 25.3616 33.2153 25.688 33.0731C26.0144 32.9309 26.381 32.8483 26.7879 32.8254C27.1947 32.8025 27.6307 32.8533 28.0957 32.9779C28.6519 33.127 29.1193 33.3524 29.4978 33.6541C29.8808 33.9571 30.1447 34.3308 30.2895 34.7752C30.4401 35.2162 30.4397 35.7194 30.2882 36.2848L29.4068 39.5742C29.3164 39.9116 29.2579 40.2209 29.2314 40.5021C29.2107 40.78 29.2197 41.0292 29.2584 41.2497L29.229 41.3591L27.5398 40.9065C27.51 40.7079 27.5089 40.4657 27.5366 40.1799C27.5701 39.8908 27.6217 39.6163 27.6913 39.3565ZM28.7388 36.4047L28.4794 37.4273L27.2963 37.1103C26.9908 37.0285 26.7139 36.986 26.4655 36.983C26.2183 36.9754 26.0026 37.0055 25.8182 37.0734C25.6339 37.1413 25.4822 37.2424 25.3632 37.3766C25.2441 37.5109 25.1583 37.676 25.1058 37.8721C25.0533 38.0681 25.0506 38.2604 25.0978 38.449C25.1462 38.633 25.2449 38.7938 25.3937 38.9314C25.5471 39.0702 25.7491 39.1732 25.9999 39.2404C26.3373 39.3308 26.6497 39.3412 26.9371 39.2717C27.2302 39.1987 27.4767 39.0815 27.6763 38.92C27.8772 38.7539 28.0066 38.5809 28.0646 38.401L28.4019 39.2757C28.2971 39.448 28.1499 39.6235 27.9603 39.8024C27.7707 39.9812 27.5424 40.14 27.2756 40.2786C27.0146 40.4139 26.7194 40.5034 26.3901 40.5471C26.0653 40.592 25.7114 40.5631 25.3285 40.4605C24.8452 40.331 24.44 40.1198 24.1129 39.827C23.787 39.5295 23.5609 39.188 23.4346 38.8023C23.3095 38.412 23.3031 38.0072 23.4155 37.5877C23.5206 37.1956 23.6863 36.8687 23.9129 36.6069C24.1452 36.3417 24.4324 36.145 24.7746 36.0168C25.1214 35.8899 25.5186 35.8301 25.9661 35.8377C26.4149 35.8406 26.9082 35.9142 27.4462 36.0583L28.7388 36.4047ZM35.5914 41.1948L37.1068 35.5391L38.7618 35.9825L36.7791 43.3821L35.2199 42.9643L35.5914 41.1948ZM36.2362 39.7183L36.7938 39.8531C36.6607 40.35 36.4832 40.7936 36.2614 41.1837C36.0408 41.5693 35.775 41.8865 35.4639 42.1355C35.1541 42.3799 34.7982 42.541 34.3962 42.619C33.9953 42.6924 33.5464 42.6625 33.0495 42.5294C32.6893 42.4329 32.3728 42.2919 32.1 42.1064C31.8272 41.9209 31.6107 41.6894 31.4505 41.4119C31.2948 41.1357 31.2048 40.8061 31.1803 40.4233C31.1558 40.0405 31.209 39.6051 31.3397 39.1173L32.6206 34.337L34.2687 34.7786L32.9842 39.5726C32.9121 39.8416 32.8835 40.0758 32.8985 40.2753C32.9147 40.4702 32.9628 40.637 33.0429 40.7758C33.123 40.9145 33.2299 41.0262 33.3636 41.1109C33.4973 41.1956 33.6462 41.2599 33.8103 41.3039C34.2799 41.4297 34.6736 41.4375 34.9915 41.3272C35.3151 41.2136 35.5761 41.0147 35.7744 40.7307C35.9772 40.4479 36.1312 40.1104 36.2362 39.7183Z" fill="white"/>
<defs>
<radialGradient id="paint0_radial_5005_25" cx="0" cy="0" r="1" gradientUnits="userSpaceOnUse" gradientTransform="translate(10.8579 41.5051) rotate(-45) scale(73.5391)">
<stop stop-color="#5071EA"/>
<stop offset="0.9999" stop-color="#00239F"/>
</radialGradient>
</defs>
</svg>
